<svg id="Logo" xmlns="http://www.w3.org/2000/svg" xmlns:xlink="http://www.w3.org/1999/xlink" width="39.898" height="50" viewBox="0 0 39.898 50">
  <defs>
    <clipPath id="clip-path">
      <path id="Path_91" data-name="Path 91" d="M0-31.757H39.9v-50H0Z" transform="translate(0 81.757)" fill="#ff4b1d"/>
    </clipPath>
  </defs>
  <g id="Group_74" data-name="Group 74" clip-path="url(#clip-path)">
    <path id="Path_90" data-name="Path 90" d="M29.991-81.115h-4.95v4.872h4.95Zm7.553-.641h-1.4l.056,1.994-1.7-1.076-.7,1.168,1.771,1-1.771.994.7,1.171,1.7-1.035-.056,1.95h1.4l-.059-1.95,1.7,1.035.717-1.171-1.781-.994,1.781-1-.717-1.168-1.7,1.076ZM34.37-43.716h4.948V-72.907H34.37ZM0-48.675a12.4,12.4,0,0,0,10.746,5.712c5.481,0,10.882-2.337,10.882-9.177,0-4.426-2.918-6.808-8.935-8.728C9.17-62,5.935-63.054,5.935-65.654c0-2.228,1.923-3.725,4.951-3.725a7.472,7.472,0,0,1,6.373,3.354l3.792-2.689c-1.725-2.668-5.2-4.937-10.254-4.937-6,0-9.731,3.459-9.731,8.248,0,4.829,3.607,6.8,9.819,8.838,3.791,1.245,5.84,2.288,5.84,5.038,0,2.244-1.906,4.2-5.751,4.2a9.257,9.257,0,0,1-7.357-4.34ZM20.631-31.757c6.864-1.6,9.36-4.3,9.36-11.5V-72.907H25.047v28.949c0,5.76-1,6.773-6.292,8.064Z" transform="translate(0 81.757)" fill="#ff4b1d"/>
  </g>
</svg>
