<svg id="Group_238" data-name="Group 238" xmlns="http://www.w3.org/2000/svg" width="161.115" height="85.154" viewBox="0 0 161.115 85.154">
  <g id="Group_236" data-name="Group 236">
    <g id="Group_235" data-name="Group 235">
      <path id="Path_132" data-name="Path 132" d="M282.933,361.059H274.5v8.3h8.43Zm12.863-1.092h-2.389l.1,3.4-2.9-1.833-1.2,1.989,3.016,1.7-3.016,1.693,1.2,1.993,2.9-1.764-.1,3.321H295.8l-.1-3.321,2.889,1.764,1.221-1.993-3.034-1.693,3.034-1.7-1.221-1.989-2.889,1.833Zm-5.4,64.787h8.426V375.039h-8.426Zm-58.535-8.446c4.463,7.085,11.778,9.727,18.3,9.727,9.334,0,18.533-3.979,18.533-15.627,0-7.538-4.969-11.6-15.217-14.865-6-1.93-11.51-3.725-11.51-8.152,0-3.794,3.274-6.344,8.431-6.344a12.726,12.726,0,0,1,10.855,5.713l6.458-4.579c-2.937-4.543-8.855-8.408-17.462-8.408-10.217,0-16.574,5.891-16.574,14.048,0,8.224,6.144,11.572,16.723,15.052,6.458,2.12,9.946,3.9,9.946,8.58,0,3.823-3.244,7.158-9.793,7.158-5.486,0-10.126-3.712-12.53-7.392Zm35.135,28.813c11.689-2.731,15.941-7.322,15.941-19.587V375.039h-8.419v49.3c0,9.809-1.711,11.536-10.715,13.734Z" transform="translate(-231.856 -359.967)" fill="#ff4228"/>
    </g>
  </g>
  <g id="Group_237" data-name="Group 237" transform="translate(75.44 26.986)">
    <path id="Path_133" data-name="Path 133" d="M296.665,397.419l1.024-.931a4.8,4.8,0,0,0,3.819,1.769c2.1,0,3.189-.768,3.189-2.142,0-1.351-.978-1.887-3.376-2.446-2.818-.7-4.262-1.443-4.262-3.585,0-1.747,1.513-3.214,4.168-3.214a6.027,6.027,0,0,1,4.54,1.771l-.907,1.071a4.9,4.9,0,0,0-3.588-1.514c-1.909,0-2.654.885-2.654,1.816,0,1.188.838,1.677,2.981,2.19,3.073.745,4.657,1.49,4.657,3.889,0,2.235-2,3.515-4.774,3.515A5.884,5.884,0,0,1,296.665,397.419Z" transform="translate(-296.665 -382.54)" fill="#2c211f"/>
    <path id="Path_134" data-name="Path 134" d="M308.031,397.1v-8.033h-2.142v-1.374h2.142v-4.4h1.606v4.4h3.192v1.374h-3.192v7.708c0,1.3.42,2,1.935,2a4.274,4.274,0,0,0,1.279-.163v1.374a9.745,9.745,0,0,1-1.583.14C308.915,400.125,308.031,399.219,308.031,397.1Z" transform="translate(-295.152 -383.127)" fill="#2c211f"/>
    <path id="Path_135" data-name="Path 135" d="M313.52,387.1h1.605v2.421h.047a5.4,5.4,0,0,1,4.867-2.654h.279l-.162,1.49s-.444-.023-.49-.023a4.967,4.967,0,0,0-4.541,3.051v7.986H313.52Z" transform="translate(-293.9 -382.54)" fill="#2c211f"/>
    <path id="Path_136" data-name="Path 136" d="M320.089,396.51c0-2.421,2.072-4.191,8.312-5.146v-.629a2.224,2.224,0,0,0-2.491-2.514,6.675,6.675,0,0,0-4.587,1.932l-.861-1a7.827,7.827,0,0,1,5.589-2.282c2.747,0,3.936,1.467,3.936,3.911v5.566a8.471,8.471,0,0,0,.349,3.026h-1.653a5.452,5.452,0,0,1-.281-1.746,7.017,7.017,0,0,1-4.844,1.956C321.369,399.585,320.089,398.421,320.089,396.51Zm8.312-.185v-3.819c-5.263.886-6.729,2.19-6.729,3.8,0,1.28.861,1.956,2.235,1.956A6.4,6.4,0,0,0,328.4,396.325Z" transform="translate(-292.823 -382.54)" fill="#2c211f"/>
    <path id="Path_137" data-name="Path 137" d="M331.981,397.1v-8.033h-2.143v-1.374h2.143v-4.4h1.606v4.4h3.191v1.374h-3.191v7.708c0,1.3.419,2,1.933,2a4.269,4.269,0,0,0,1.279-.163v1.374a9.745,9.745,0,0,1-1.583.14C332.864,400.125,331.981,399.219,331.981,397.1Z" transform="translate(-291.223 -383.127)" fill="#2c211f"/>
    <path id="Path_138" data-name="Path 138" d="M336.554,393.228c0-4.353,2.795-6.357,5.379-6.357,2.865,0,5.008,2.188,5.008,6.381v.3h-8.779c.022,3.028,1.746,4.727,3.865,4.727a4.149,4.149,0,0,0,3.819-2.235l1,.792a5.417,5.417,0,0,1-4.913,2.794C339.069,399.631,336.554,397.419,336.554,393.228Zm8.826-.954c-.163-2.328-1.282-4.052-3.47-4.052-1.769,0-3.422,1.282-3.726,4.052Z" transform="translate(-290.122 -382.54)" fill="#2c211f"/>
    <path id="Path_139" data-name="Path 139" d="M346.278,401.006a3.065,3.065,0,0,1,2.259-2.795,1.562,1.562,0,0,1-1.1-1.561c0-.744.606-1.372,1.491-1.839a4.058,4.058,0,0,1-1.864-3.515c0-2.607,2.072-4.425,4.844-4.425a5.08,5.08,0,0,1,3.493,1.257,6.513,6.513,0,0,1,2.841-1.117v1.513a5.792,5.792,0,0,0-2.236.419,3.824,3.824,0,0,1,.722,2.353c0,2.678-2.1,4.355-4.82,4.355a5.413,5.413,0,0,1-1.979-.35c-.582.234-.978.582-.978,1.049,0,.512.442.79,1.816.931l2.677.21c2.841.233,4.331,1.211,4.331,3.121,0,2.235-2.328,3.469-5.682,3.469C348.117,404.079,346.278,402.892,346.278,401.006Zm10.013-.256c0-1.165-.931-1.747-3.354-1.933l-2.444-.185-.629-.071c-1.374.442-2.049,1.3-2.049,2.236,0,1.28,1.35,2.025,4.447,2.025C354.778,402.822,356.291,401.984,356.291,400.75Zm-1.071-9.432a2.976,2.976,0,0,0-3.307-3.165,3.136,3.136,0,1,0,3.307,3.165Z" transform="translate(-288.527 -382.54)" fill="#2c211f"/>
    <path id="Path_140" data-name="Path 140" d="M358.1,383.15h1.7v1.724h-1.7Zm.047,4.564h1.608v12.271h-1.608Z" transform="translate(-286.588 -383.15)" fill="#2c211f"/>
    <path id="Path_141" data-name="Path 141" d="M361.5,393.252c0-4.4,2.725-6.381,5.472-6.381a4.839,4.839,0,0,1,4.7,3.354l-1.375.6c-.675-1.652-1.652-2.584-3.376-2.584-1.817,0-3.819,1.3-3.819,4.983,0,3.214,1.63,5.03,3.773,5.03,1.7,0,2.654-.792,3.517-2.607l1.3.559c-.978,2.072-2.4,3.422-4.891,3.422C364,399.631,361.5,397.326,361.5,393.252Z" transform="translate(-286.029 -382.54)" fill="#2c211f"/>
    <path id="Path_142" data-name="Path 142" d="M296.8,411.252c0-4.4,2.725-6.381,5.472-6.381a4.839,4.839,0,0,1,4.7,3.354l-1.374.6c-.675-1.652-1.654-2.584-3.377-2.584-1.816,0-3.819,1.3-3.819,4.983,0,3.214,1.63,5.03,3.773,5.03,1.7,0,2.655-.792,3.517-2.607l1.3.559c-.978,2.072-2.4,3.422-4.89,3.422C299.3,417.631,296.8,415.326,296.8,411.252Z" transform="translate(-296.642 -379.587)" fill="#2c211f"/>
    <path id="Path_143" data-name="Path 143" d="M307.321,405.1h1.606v2.421h.047a5.4,5.4,0,0,1,4.868-2.654h.278l-.163,1.49s-.441-.023-.488-.023a4.967,4.967,0,0,0-4.542,3.051v7.986h-1.606Z" transform="translate(-294.917 -379.587)" fill="#2c211f"/>
    <path id="Path_144" data-name="Path 144" d="M313.627,411.228c0-4.354,2.794-6.357,5.379-6.357,2.864,0,5.007,2.188,5.007,6.381v.3h-8.779c.023,3.028,1.747,4.727,3.866,4.727a4.146,4.146,0,0,0,3.818-2.235l1,.792a5.418,5.418,0,0,1-4.913,2.794C316.141,417.631,313.627,415.419,313.627,411.228Zm8.826-.955c-.164-2.328-1.282-4.052-3.47-4.052-1.769,0-3.423,1.282-3.726,4.052Z" transform="translate(-293.883 -379.587)" fill="#2c211f"/>
    <path id="Path_145" data-name="Path 145" d="M323.929,414.51c0-2.421,2.072-4.191,8.312-5.146v-.629a2.224,2.224,0,0,0-2.491-2.514,6.675,6.675,0,0,0-4.587,1.932l-.861-1a7.827,7.827,0,0,1,5.589-2.281c2.747,0,3.936,1.467,3.936,3.911v5.566a8.5,8.5,0,0,0,.348,3.027h-1.652a5.453,5.453,0,0,1-.281-1.746,7.017,7.017,0,0,1-4.844,1.956C325.209,417.585,323.929,416.421,323.929,414.51Zm8.312-.185v-3.819c-5.263.886-6.729,2.19-6.729,3.8,0,1.28.861,1.956,2.235,1.956A6.4,6.4,0,0,0,332.241,414.325Z" transform="translate(-292.193 -379.587)" fill="#2c211f"/>
    <path id="Path_146" data-name="Path 146" d="M335.821,415.1v-8.033h-2.142v-1.374h2.142v-4.4h1.606v4.4h3.191v1.374h-3.191v7.708c0,1.3.42,2,1.933,2a4.282,4.282,0,0,0,1.28-.163v1.374a9.761,9.761,0,0,1-1.583.14C336.705,418.125,335.821,417.219,335.821,415.1Z" transform="translate(-290.593 -380.174)" fill="#2c211f"/>
    <path id="Path_147" data-name="Path 147" d="M341.326,401.15h1.7v1.724h-1.7Zm.047,4.564h1.608v12.271h-1.608Z" transform="translate(-289.339 -380.197)" fill="#2c211f"/>
    <path id="Path_148" data-name="Path 148" d="M344.276,405.071H346l3.632,10.362h.047l3.61-10.362h1.63L350.4,417.389h-1.606Z" transform="translate(-288.855 -379.554)" fill="#2c211f"/>
    <path id="Path_149" data-name="Path 149" d="M353.964,411.228c0-4.354,2.794-6.357,5.379-6.357,2.864,0,5.007,2.188,5.007,6.381v.3H355.57c.023,3.028,1.747,4.727,3.866,4.727a4.146,4.146,0,0,0,3.818-2.235l1,.792a5.418,5.418,0,0,1-4.913,2.794C356.478,417.631,353.964,415.419,353.964,411.228Zm8.826-.955c-.164-2.328-1.282-4.052-3.471-4.052-1.768,0-3.422,1.282-3.725,4.052Z" transform="translate(-287.266 -379.587)" fill="#2c211f"/>
  </g>
</svg>
